# xmcd
#
# Track frame offsets:
#	182
#	12122
#	25967
#	38445
#	47785
#	63275
#	76092
#	89065
#	100885
#	114810
#	129412
#	141537
#	156090
#	167320
#	180167
#	193550
#	210597
#	219757
#	235850
#	251480
#
# Disc length: 3471 seconds
#
# Revision: 4
# Processed by: cddbd v1.5.1PL2 Copyright (c) Steve Scherf et al.
# Submitted via: dBpowerAMP V4.0
#
DISCID=f40d8d14
DTITLE=Foster and Allen - Heart Strings
DYEAR=1992
DGENRE=Country
TTITLE0=Que Sera Sera
TTITLE1=I Love You More And More Everyday
TTITLE2=When You Are in Love It's The Loveliest Night of The Year
TTITLE3=I'll Tell me Ma
TTITLE4=Send me The Pillow You Dream On
TTITLE5=The Ring Your Mother Wore
TTITLE6=The Old Boreen
TTITLE7=Roses And Violets
TTITLE8=Liverpool Lou
TTITLE9=Brian O'Kane's March
TTITLE10=There's a Rainbow Somewhere
TTITLE11=An Old Time Waltz
TTITLE12=The Irish Rover
TTITLE13=Sweet Thames Flow Softly
TTITLE14=On my Mind
TTITLE15=Love Me
TTITLE16=Little Beggar Man
TTITLE17=The Village Where I Went to School
TTITLE18=You're Never Too Old to Love
TTITLE19=Polkas
EXTD=
EXTT0=
EXTT1=
EXTT2=
EXTT3=
EXTT4=
EXTT5=
EXTT6=
EXTT7=
EXTT8=
EXTT9=
EXTT10=
EXTT11=
EXTT12=
EXTT13=
EXTT14=
EXTT15=
EXTT16=
EXTT17=
EXTT18=
EXTT19=
PLAYORDER=
